<svg xmlns="http://www.w3.org/2000/svg" height="40" viewBox="0 -960 960 960" width="40"><path d="M374.898-315.261q-112.774 0-191.09-78.369-78.316-78.37-78.316-189.703 0-111.334 78.37-189.704 78.37-78.369 190.036-78.369 111.667 0 189.703 78.369 78.037 78.37 78.037 189.804 0 44.363-13.058 83.182t-37.841 71.399l232.232 231.087q12.87 13.139 12.87 31.671t-13.058 31.402q-13.071 13.246-31.785 13.246t-31.288-13.246l-231.377-231q-29.435 23.42-68.791 36.826-39.357 13.405-84.644 13.405Zm-.533-88.145q75.077 0 127.102-52.536 52.025-52.536 52.025-127.391t-52.08-127.392q-52.081-52.536-127.047-52.536-75.522 0-128.125 52.536-52.602 52.537-52.602 127.392 0 74.855 52.547 127.391t128.18 52.536Z"/></svg>